<?xml version="1.0" encoding="utf-8"?>
<!-- Generator: Adobe Illustrator 16.0.0, SVG Export Plug-In . SVG Version: 6.00 Build 0)  -->
<!DOCTYPE svg PUBLIC "-//W3C//DTD SVG 1.1//EN" "http://www.w3.org/Graphics/SVG/1.1/DTD/svg11.dtd">
<svg version="1.1" id="Layer_1" xmlns="http://www.w3.org/2000/svg" xmlns:xlink="http://www.w3.org/1999/xlink" x="0px" y="0px"
	 width="512px" height="512px" viewBox="0 0 512 512" enable-background="new 0 0 512 512" xml:space="preserve">
<g id="Layer_1_1_">
	<g id="Layer_2" display="none">
	</g>
	<g id="shadows">
		<g opacity="0.9">
			<g>
				<path fill="#B7B7B7" d="M466.5,381.5c0,48.6-39.4,88-88,88h-246c-48.603,0-88-39.4-88-88V164.833c0-48.601,39.397-88,88-88h246
					c48.6,0,88,39.399,88,88V381.5z"/>
			</g>
		</g>
		<g>
			<g>
				<path fill="#FFFFFF" d="M466.5,360.5c0,48.6-39.4,88-88,88h-246c-48.603,0-88-39.4-88-88V143.833c0-48.601,39.397-88,88-88h246
					c48.6,0,88,39.399,88,88V360.5z"/>
			</g>
		</g>
	</g>
	<path fill="#FFFFFF" stroke="#E2E2E2" stroke-width="10" stroke-miterlimit="10" d="M465.5,362.667c0,48.6-39.399,88-88,88h-246
		c-48.603,0-88-39.4-88-88V146c0-48.601,39.397-88,88-88h246c48.601,0,88,39.399,88,88V362.667z"/>
</g>
<g id="Layer_2_1_">
</g>
<rect x="62.169" y="115.5" fill="none" width="379" height="73"/>
<text transform="matrix(1 0 0 1 62.1692 166.6191)" font-family="'MyriadPro-Regular'" font-size="72">1011011001</text>
<rect x="62.832" y="201.5" fill="none" width="378.337" height="68"/>
<text transform="matrix(1 0 0 1 62.8318 252.6191)" font-family="'MyriadPro-Regular'" font-size="72">1000111010</text>
<rect x="62.831" y="285.5" fill="none" width="387" height="83"/>
<text transform="matrix(1 0 0 1 62.8313 336.6191)" font-family="'MyriadPro-Regular'" font-size="72">1101110011</text>
<rect x="62.831" y="365.5" fill="none" width="387" height="83"/>
<text transform="matrix(1 0 0 1 62.8313 416.6191)" font-family="'MyriadPro-Regular'" font-size="72">0110011011</text>
<g id="Layer_1_2_">
	<g id="Layer_2_2_" display="none">
	</g>
	<g id="shadows_1_">
		<g opacity="0.9">
			<g>
				<path fill="#B7B7B7" d="M469.542,381.208c0,48.94-39.676,88.616-88.617,88.616H133.2c-48.941,0-88.618-39.676-88.618-88.616
					v-218.22c0-48.941,39.677-88.618,88.618-88.618h247.725c48.941,0,88.617,39.677,88.617,88.618V381.208z"/>
			</g>
		</g>
		<g>
			<g>
				<path fill="#FFFFFF" d="M469.542,360.061c0,48.941-39.676,88.617-88.617,88.617H133.2c-48.941,0-88.618-39.676-88.618-88.617
					v-218.22c0-48.941,39.677-88.618,88.618-88.618h247.725c48.941,0,88.617,39.677,88.617,88.618V360.061z"/>
			</g>
		</g>
	</g>
	<path fill="#FFFFFF" stroke="#7F7F7F" stroke-width="2" stroke-miterlimit="10" d="M468.536,362.276
		c0,48.94-39.677,88.617-88.618,88.617H132.193c-48.941,0-88.618-39.677-88.618-88.617v-218.22
		c0-48.941,39.677-88.618,88.618-88.618h247.725c48.941,0,88.618,39.677,88.618,88.618V362.276z"/>
</g>
<rect x="130.179" y="122.405" fill="none" width="256.788" height="249.741"/>
<path fill="#E2DFE2" d="M354.432,151.281c0-33.652-27.279-60.933-60.933-60.933h-3.415c14.721,0,26.654,11.933,26.654,26.654v4.001
	c0,3.888,3.15,7.04,7.039,7.04h4c14.721,0,26.654,11.933,26.654,26.654V151.281z"/>
<path fill="#A2F4C1" d="M221.064,119.199h-61.516c-5.877,0-10.642,4.764-10.642,10.641v39.412c0-5.876,4.764-10.64,10.641-10.64
	h61.517c5.877,0,10.641-4.765,10.641-10.642v-18.13C231.705,123.963,226.941,119.199,221.064,119.199z"/>
<path fill="#F9F6F9" d="M327.779,128.043h-4.001c-3.888,0-7.039-3.152-7.039-7.04v-4.001c0-14.721-11.934-26.654-26.654-26.654
	H173.999c-3.888,0-7.04,3.151-7.04,7.04v21.81h54.104c5.877,0,10.641,4.764,10.641,10.641v18.13c0,5.877-4.764,10.642-10.641,10.642
	H166.96v185.395c0,3.889,3.152,7.04,7.04,7.04h173.394c3.889,0,7.039-3.151,7.039-7.04v-189.31
	C354.432,139.977,342.498,128.043,327.779,128.043z"/>
<path fill="#EFECEF" d="M327.992,128.044c3.424,4.483,5.458,10.085,5.458,16.162V288.16c0,28.938-23.458,52.396-52.396,52.396
	H166.96v3.451c0,3.889,3.152,7.04,7.04,7.04h173.394c3.889,0,7.039-3.151,7.039-7.04v-189.31
	C354.432,140.049,342.615,128.159,327.992,128.044z"/>
<path fill="#86F1A7" d="M166.96,179.893h-7.413c-5.876,0-10.641-4.764-10.641-10.641s4.764-10.64,10.641-10.64h7.413V179.893z"/>
<path fill="#80E29D" d="M333.45,210.442v-20.641c0-2.897-2.349-5.246-5.245-5.246H213.828v25.886H333.45z"/>
<path fill="#78D090" d="M213.828,184.556h-20.641c-2.897,0-5.245,2.349-5.245,5.246v20.641h25.886V184.556z"/>
<path fill="#80E29D" d="M187.942,210.442v114.377c0,2.897,2.348,5.246,5.245,5.246h20.641V210.442H187.942z"/>
<path fill="#A2F4C1" d="M213.828,210.442v119.623h114.377c2.896,0,5.245-2.349,5.245-5.246V210.442H213.828z"/>
<path fill="#86F1A7" d="M328.205,330.065c2.896,0,5.245-2.349,5.245-5.246v-36.639c-0.006,17.125-8.228,32.328-20.938,41.885
	H328.205z"/>
<path d="M293.499,86.415h-119.5c-6.051,0-10.974,4.923-10.974,10.974v17.876h-3.478c-8.037,0-14.576,6.538-14.576,14.575v39.412
	c0,8.036,6.538,14.575,14.575,14.575h3.479v160.18c0,6.052,4.923,10.975,10.974,10.975h173.394c6.051,0,10.974-4.924,10.974-10.975
	V298.79c0-2.172-1.761-3.934-3.935-3.934c-2.172,0-3.934,1.762-3.934,3.934v45.217c0,1.713-1.393,3.105-3.105,3.105H174
	c-1.712,0-3.105-1.393-3.105-3.105v-181.46h17.048c2.172,0,3.934-1.761,3.934-3.934s-1.762-3.934-3.934-3.934h-28.396
	c-2.417,0-4.698,0.591-6.707,1.636V129.84c0-3.699,3.009-6.707,6.708-6.707h61.516c3.699,0,6.708,3.008,6.708,6.707v18.13
	c0,3.699-3.008,6.707-6.708,6.707H206.3c-2.172,0-3.934,1.762-3.934,3.935c0,2.172,1.762,3.934,3.934,3.934h14.763
	c8.037,0,14.576-6.538,14.576-14.575v-18.13c0-8.037-6.538-14.575-14.575-14.575h-50.17V97.388c0-1.713,1.394-3.105,3.105-3.105
	h116.085c12.527,0,22.72,10.192,22.72,22.72v4.001c0,6.051,4.923,10.974,10.974,10.974h4c12.527,0,22.721,10.192,22.721,22.72
	v125.734c0,2.174,1.762,3.935,3.934,3.935c2.173,0,3.934-1.761,3.934-3.935V151.282C358.366,115.514,329.268,86.415,293.499,86.415
	L293.499,86.415z M159.547,162.546h3.479v13.412h-3.479c-3.698,0-6.707-3.008-6.707-6.707
	C152.84,165.554,155.849,162.546,159.547,162.546z M327.779,124.109h-4.001c-1.713,0-3.105-1.393-3.105-3.105v-4.001
	c0-7.104-2.433-13.648-6.51-18.845c14.837,5.79,26.672,17.625,32.462,32.462C341.426,126.542,334.881,124.109,327.779,124.109
	L327.779,124.109z"/>
<path d="M193.187,180.622c-5.062,0-9.179,4.118-9.179,9.18v135.018c0,5.063,4.118,9.18,9.179,9.18h135.019
	c5.062,0,9.18-4.117,9.18-9.18V189.802c0-5.062-4.118-9.18-9.18-9.18H193.187z M278.645,214.376h10.998v16.056h-32.006v-16.056
	h2.648c2.172,0,3.934-1.762,3.934-3.934s-1.762-3.934-3.934-3.934h-2.648V188.49h32.006v18.018h-10.998
	c-2.173,0-3.935,1.762-3.935,3.934S276.472,214.376,278.645,214.376L278.645,214.376z M257.636,302.206V286.15h32.006v16.056
	H257.636z M289.643,310.075v16.056h-32.006v-16.056H289.643z M209.893,262.226v16.057h-18.018v-16.057H209.893z M191.876,254.356
	v-16.056h18.018v16.056H191.876z M217.761,262.226h32.006v16.057h-32.006V262.226z M257.636,262.226h32.006v16.057h-32.006V262.226z
	 M297.51,262.226h32.006v16.057H297.51V262.226z M297.51,254.356v-16.056h32.006v16.056H297.51z M289.643,254.356h-32.006v-16.056
	h32.006V254.356z M249.768,254.356h-32.006v-16.056h32.006V254.356z M217.761,230.433v-16.056h32.006v16.056H217.761z
	 M217.761,206.508V188.49h32.006v18.018H217.761z M209.893,230.433h-18.018v-16.056h18.018V230.433z M191.876,286.15h18.018v16.056
	h-18.018V286.15z M217.761,286.15h32.006v16.056h-32.006V286.15z M297.51,286.15h32.006v16.056H297.51V286.15z M329.516,230.433
	H297.51v-16.056h32.006V230.433z M191.876,189.802c0-0.723,0.588-1.312,1.311-1.312h16.707v18.018h-18.018V189.802z
	 M191.876,324.819v-14.744h18.018v16.056h-16.707C192.464,326.131,191.876,325.542,191.876,324.819L191.876,324.819z
	 M217.761,310.075h32.006v16.056h-32.006V310.075z M328.205,326.131H297.51v-16.056h32.006v14.744
	C329.516,325.542,328.928,326.131,328.205,326.131z M329.516,189.802v16.707H297.51V188.49h30.695
	C328.928,188.49,329.516,189.078,329.516,189.802z"/>
<text transform="matrix(1 0 0 1 145.3875 407)" enable-background="new    "><tspan x="0" y="0" fill="#070504" stroke="#000000" stroke-miterlimit="10" font-family="'MyriadPro-Regular'" font-size="45">Lobre Office</tspan><tspan x="228.732" y="0" fill="none" stroke="#000000" stroke-miterlimit="10" font-family="'MyriadPro-Regular'" font-size="45"> </tspan></text>
</svg>
