<?xml version="1.0" encoding="utf-8"?>
<!-- Generator: Adobe Illustrator 24.0.1, SVG Export Plug-In . SVG Version: 6.00 Build 0)  -->
<svg version="1.1" id="Layer_1" xmlns="http://www.w3.org/2000/svg" xmlns:xlink="http://www.w3.org/1999/xlink" x="0px" y="0px"
	 viewBox="0 0 512 512" style="enable-background:new 0 0 512 512;" xml:space="preserve">
<style type="text/css">
	.st0{display:none;}
	.st1{opacity:0.9;}
	.st2{fill:#B7B7B7;}
	.st3{fill:#FFFFFF;}
	.st4{fill:url(#SVGID_1_);stroke:#E2E2E2;stroke-width:10;stroke-miterlimit:10;}
</style>
<g id="Layer_1_1_">
	<g id="Layer_2_1_" class="st0">
	</g>
	<g id="shadows">
		<g class="st1">
			<g>
				<path class="st2" d="M466.5,381.5c0,48.6-39.4,88-88,88h-246c-48.6,0-88-39.4-88-88V164.8c0-48.6,39.4-88,88-88h246
					c48.6,0,88,39.4,88,88V381.5z"/>
			</g>
		</g>
		<g>
			<g>
				<path class="st3" d="M466.5,360.5c0,48.6-39.4,88-88,88h-246c-48.6,0-88-39.4-88-88V143.8c0-48.6,39.4-88,88-88h246
					c48.6,0,88,39.4,88,88V360.5z"/>
			</g>
		</g>
	</g>
	
		<linearGradient id="SVGID_1_" gradientUnits="userSpaceOnUse" x1="43.5" y1="257.5398" x2="465.5" y2="257.5398" gradientTransform="matrix(1 0 0 -1 0 511.8898)">
		<stop  offset="0" style="stop-color:#AAB5F1"/>
		<stop  offset="1" style="stop-color:#1D3060"/>
	</linearGradient>
	<path class="st4" d="M465.5,362.7c0,48.6-39.4,88-88,88h-246c-48.6,0-88-39.4-88-88V146c0-48.6,39.4-88,88-88h246
		c48.6,0,88,39.4,88,88V362.7z"/>
</g>
<g>
	<path class="st3" d="M243.4,336.2v23.7h-131V148.6h131v23.7H138.8v67.8H238v23.4h-99.2v72.7H243.4z"/>
	<path class="st3" d="M274,360V207.6h24v24.3h0.6c4.4-8.5,10.7-15.1,18.9-19.8c8.2-4.7,18-7.1,29.4-7.1c16.6,0,29.5,5,38.8,15
		s13.9,23.7,13.9,41.1V360h-25.5v-94.3c0-12.4-2.9-21.8-8.8-28.3s-14.6-9.7-26.2-9.7c-12,0-21.6,3.9-28.9,11.7
		c-7.2,7.8-10.8,18.2-10.8,31.1v89.6L274,360L274,360z"/>
</g>
</svg>
