<?xml version="1.0" encoding="utf-8"?>
<!-- Generator: Adobe Illustrator 24.0.1, SVG Export Plug-In . SVG Version: 6.00 Build 0)  -->
<svg version="1.1" id="Layer_1" xmlns="http://www.w3.org/2000/svg" xmlns:xlink="http://www.w3.org/1999/xlink" x="0px" y="0px"
	 viewBox="0 0 512 512" style="enable-background:new 0 0 512 512;" xml:space="preserve">
<style type="text/css">
	.st0{display:none;}
	.st1{opacity:0.9;}
	.st2{fill:#B7B7B7;}
	.st3{fill:#FFFFFF;}
	.st4{fill:url(#SVGID_1_);stroke:#E2E2E2;stroke-width:10;stroke-miterlimit:10;}
</style>
<g id="Layer_1_1_">
	<g id="Layer_2_1_" class="st0">
	</g>
	<g id="shadows">
		<g class="st1">
			<g>
				<path class="st2" d="M466.5,381.5c0,48.6-39.4,88-88,88h-246c-48.6,0-88-39.4-88-88V164.8c0-48.6,39.4-88,88-88h246
					c48.6,0,88,39.4,88,88V381.5z"/>
			</g>
		</g>
		<g>
			<g>
				<path class="st3" d="M466.5,360.5c0,48.6-39.4,88-88,88h-246c-48.6,0-88-39.4-88-88V143.8c0-48.6,39.4-88,88-88h246
					c48.6,0,88,39.4,88,88V360.5z"/>
			</g>
		</g>
	</g>
	
		<linearGradient id="SVGID_1_" gradientUnits="userSpaceOnUse" x1="43.5" y1="257.5398" x2="465.5" y2="257.5398" gradientTransform="matrix(1 0 0 -1 0 511.8898)">
		<stop  offset="0" style="stop-color:#B06473"/>
		<stop  offset="1" style="stop-color:#2C181C"/>
	</linearGradient>
	<path class="st4" d="M465.5,362.7c0,48.6-39.4,88-88,88h-246c-48.6,0-88-39.4-88-88V146c0-48.6,39.4-88,88-88h246
		c48.6,0,88,39.4,88,88V362.7z"/>
</g>
<g>
	<path class="st3" d="M188.6,371.8h-26.4V160.4h128.3v23.7H188.6v72.7h93.6v23.4h-93.6V371.8z"/>
	<path class="st3" d="M330.8,193.8c-4.3,0-8-1.6-11.1-4.7c-3.1-3.1-4.7-6.8-4.7-11.1c0-4.4,1.6-8.1,4.7-11.2
		c3.1-3.1,6.8-4.6,11.1-4.6c4.4,0,8.2,1.5,11.3,4.6c3.1,3.1,4.7,6.8,4.7,11.2c0,4.3-1.6,8-4.7,11.1
		C338.9,192.2,335.1,193.8,330.8,193.8z M317.9,371.8V219.4h25.5v152.3L317.9,371.8L317.9,371.8z"/>
</g>
</svg>
