<?xml version="1.0" encoding="utf-8"?>
<!-- Generator: Adobe Illustrator 24.0.1, SVG Export Plug-In . SVG Version: 6.00 Build 0)  -->
<svg version="1.1" id="Layer_1" xmlns="http://www.w3.org/2000/svg" xmlns:xlink="http://www.w3.org/1999/xlink" x="0px" y="0px"
	 viewBox="0 0 512 512" style="enable-background:new 0 0 512 512;" xml:space="preserve">
<style type="text/css">
	.st0{display:none;}
	.st1{opacity:0.9;}
	.st2{fill:#B7B7B7;}
	.st3{fill:#FFFFFF;}
	.st4{fill:url(#SVGID_1_);stroke:#E2E2E2;stroke-width:10;stroke-miterlimit:10;}
</style>
<g id="Layer_1_1_">
	<g id="Layer_2_1_" class="st0">
	</g>
	<g id="shadows">
		<g class="st1">
			<g>
				<path class="st2" d="M466.5,381.5c0,48.6-39.4,88-88,88h-246c-48.6,0-88-39.4-88-88V164.8c0-48.6,39.4-88,88-88h246
					c48.6,0,88,39.4,88,88V381.5z"/>
			</g>
		</g>
		<g>
			<g>
				<path class="st3" d="M466.5,360.5c0,48.6-39.4,88-88,88h-246c-48.6,0-88-39.4-88-88V143.8c0-48.6,39.4-88,88-88h246
					c48.6,0,88,39.4,88,88V360.5z"/>
			</g>
		</g>
	</g>
	
		<linearGradient id="SVGID_1_" gradientUnits="userSpaceOnUse" x1="43.5" y1="257.5398" x2="465.5" y2="257.5398" gradientTransform="matrix(1 0 0 -1 0 511.8898)">
		<stop  offset="0" style="stop-color:#6CD25A"/>
		<stop  offset="1" style="stop-color:#082409"/>
	</linearGradient>
	<path class="st4" d="M465.5,362.7c0,48.6-39.4,88-88,88h-246c-48.6,0-88-39.4-88-88V146c0-48.6,39.4-88,88-88h246
		c48.6,0,88,39.4,88,88V362.7z"/>
</g>
<g>
	<path class="st3" d="M84.6,172.4h63c27.8,0,49.5,8.3,65.2,24.8s23.4,39.5,23.4,69c0,29.6-7.8,52.7-23.4,69.2S175.6,360,147.7,360
		h-63C84.6,360,84.6,172.4,84.6,172.4z M108.1,193.4v145.5h38.1c21.2,0,37.6-6.3,49-18.8s17.1-30.5,17.1-53.8
		c0-23.5-5.7-41.6-17.1-54.1c-11.4-12.6-27.8-18.8-49.1-18.8L108.1,193.4L108.1,193.4z"/>
	<path class="st3" d="M433.8,224.7L396.1,360h-23l-30.5-104.7H342L311.6,360h-23l-37.8-135.2h22.5l27.1,110h0.5l30.5-110h21.8
		l30.7,110h0.5l27.1-110L433.8,224.7L433.8,224.7z"/>
</g>
</svg>
